<svg width="100" height="100" viewBox="0 0 100 100" fill="none" xmlns="http://www.w3.org/2000/svg">
<rect width="100" height="100" fill="#E3E3E3"/>
<path d="M40.1554 30.6947C33.1377 34.2802 28.333 41.5795 28.333 50.0009C28.333 53.4669 29.1469 56.7429 30.5938 59.648C30.9784 60.42 31.1064 61.3025 30.8834 62.1358L29.5929 66.9588C29.0327 69.0524 30.9482 70.968 33.0419 70.4077L37.865 69.1172C38.6982 68.8942 39.5806 69.0223 40.3527 69.4069C43.2578 70.8538 46.5337 71.6678 49.9997 71.6678C60.5845 71.6678 69.3965 64.0775 71.29 54.043C67.7139 58.2011 62.4142 60.8342 56.4997 60.8342C45.73 60.8342 36.9997 52.1039 36.9997 41.3344C36.9997 37.4089 38.1596 33.7543 40.1554 30.6947Z" fill="#929BBC"/>
<path opacity="0.5" d="M71.2903 54.042C71.5373 52.7324 71.6667 51.3813 71.6667 50C71.6667 38.0339 61.9661 28.3334 50 28.3334C46.6345 28.3334 43.4482 29.1007 40.6066 30.4699C40.4553 30.5428 40.305 30.6175 40.1557 30.6937C38.1599 33.7533 37 37.4079 37 41.3334C37 52.103 45.7304 60.8334 56.5 60.8334C62.4146 60.8334 67.7142 58.2002 71.2903 54.042Z" fill="#BDC5DF"/>
</svg>
